<?xml version="1.0" encoding="iso-8859-1"?>
<!-- Generator: Adobe Illustrator 16.0.0, SVG Export Plug-In . SVG Version: 6.00 Build 0)  -->
<!DOCTYPE svg PUBLIC "-//W3C//DTD SVG 1.1//EN" "http://www.w3.org/Graphics/SVG/1.1/DTD/svg11.dtd">
<svg version="1.1" id="Capa_1" xmlns="http://www.w3.org/2000/svg" xmlns:xlink="http://www.w3.org/1999/xlink" x="0px" y="0px"
	 width="36px" height="36px" viewBox="0 0 388.409 388.409" fill="white"
	 xml:space="preserve">
<g>
	<path d="M281.242,55.345c-9.18-65.484-132.804-33.66-168.3-14.076c-44.064,24.48-75.888,69.769-87.516,118.116
		c-4.896,20.808-10.404,52.632,0.612,72.828c-11.016,0.611-20.808,3.06-23.868,9.18c-0.612,0.612,0,1.224,0,1.836l0,0
		c-2.448,1.836-3.06,4.896-0.612,7.956c20.808,26.316,41.004,54.468,64.872,77.724c3.06,3.061,8.568,3.673,11.628,0
		c20.196-23.256,29.988-53.243,44.676-79.56c2.448-0.612,4.284-1.224,6.12-2.448c3.672-2.448,3.672-7.956,0-10.403
		c-7.956-4.896-17.748-3.061-26.316-3.061c-0.612,0-0.612,0-1.224,0c-9.18-33.66,5.508-72.216,24.48-100.368
		c28.764-42.84,82.008-39.779,124.236-27.54c1.225,0.612,2.448,0,3.672,0c2.448,1.225,6.12-1.224,6.12-4.283
		c0-3.061,3.061-7.345,4.284-9.792c2.448-4.896,6.12-9.181,9.18-13.464C278.794,71.869,287.362,63.301,281.242,55.345z"/>
	<path d="M388.343,159.385c-0.612-3.672-2.448-6.12-4.896-7.956c-11.628-24.479-34.884-45.899-50.184-68.544
		c-2.448-3.672-8.568-5.508-12.24-1.836c-22.032,23.256-42.229,47.736-63.036,72.216c-3.06,3.672,0,7.956,3.06,7.956l0,0
		c10.404,6.732,26.929,5.508,41.005,4.284c3.672,44.063-14.076,82.008-52.633,106.487c-33.048,22.645-70.992,12.24-105.875,24.48
		c-1.224,0-1.836,0.612-3.06,1.224c-1.224,0.612-1.836,0.612-3.06,1.225c-1.836,0.611-1.836,3.672-0.612,4.896
		c-3.672,12.24-4.284,25.704-2.448,38.557c0,0,0,0,0,0.611l0,0c0,0.612,0,1.225,0,1.225c-1.836,1.836-2.448,4.896-0.612,6.731
		c-0.612,4.284,3.672,7.344,7.344,7.956c1.224,0,1.836,0,3.06,0c47.124,30.601,115.056,3.672,155.448-28.152
		c43.452-34.271,84.456-110.159,64.26-167.075c5.508,0.612,11.016,1.836,16.524,3.06
		C385.282,169.177,388.954,163.669,388.343,159.385z"/>
</g>
<g>
</g>
<g>
</g>
<g>
</g>
<g>
</g>
<g>
</g>
<g>
</g>
<g>
</g>
<g>
</g>
<g>
</g>
<g>
</g>
<g>
</g>
<g>
</g>
<g>
</g>
<g>
</g>
<g>
</g>
</svg>
